<svg version="1.1" viewBox="0.0 0.0 795.4829396325459 894.1942257217847" fill="none" stroke="none" stroke-linecap="square" stroke-miterlimit="10" xmlns:xlink="http://www.w3.org/1999/xlink" xmlns="http://www.w3.org/2000/svg"><clipPath id="p.0"><path d="m0 0l795.4829 0l0 894.1942l-795.4829 0l0 -894.1942z" clip-rule="nonzero"/></clipPath><g clip-path="url(#p.0)"><path fill="#000000" fill-opacity="0.0" d="m0 0l795.4829 0l0 894.1942l-795.4829 0z" fill-rule="evenodd"/><path fill="#ff9b0a" d="m513.2778 578.9659l-43.06299 172.25195l-92.33069 0l-43.06299 -172.25195z" fill-rule="evenodd"/><path fill="#b6d7a8" d="m315.9886 369.82632l0 0c0 -7.105774 6.063568 -12.866119 13.543304 -12.866119l0 0c3.591919 0 7.0367126 1.3555298 9.576569 3.768402c2.539856 2.4128723 3.9667358 5.685425 3.9667358 9.097717l0 0c0 7.105774 -6.0635376 12.86615 -13.543304 12.86615l0 0c-7.4797363 0 -13.543304 -5.760376 -13.543304 -12.86615z" fill-rule="evenodd"/><path fill="#b6d7a8" d="m524.31494 274.6003l0 0c0 -7.105774 6.0635376 -12.86615 13.543335 -12.86615l0 0c3.591919 0 7.036682 1.3555603 9.576538 3.768402c2.539856 2.4128723 3.9667358 5.685425 3.9667358 9.097748l0 0c0 7.105774 -6.0635376 12.86615 -13.543274 12.86615l0 0c-7.4797974 0 -13.543335 -5.760376 -13.543335 -12.86615z" fill-rule="evenodd"/><path fill="#b6d7a8" d="m403.45554 188.69646l0 0c0 -12.114151 10.213562 -21.934616 22.812622 -21.934616l0 0c6.050293 0 11.852783 2.3109589 16.130981 6.4244995c4.2781677 4.1135406 6.6816406 9.692688 6.6816406 15.510117l0 0c0 12.114151 -10.213562 21.934616 -22.812622 21.934616l0 0c-12.59906 0 -22.812622 -9.820465 -22.812622 -21.934616z" fill-rule="evenodd"/><path fill="#ffce9a" d="m319.0582 349.50696l3.2253418 -4.1359253l-1.1510925 -5.15744l5.173004 3.0517578E-5l3.2252502 -4.135956l3.2252502 4.135956l5.173004 -3.0517578E-5l-1.1510925 5.15744l3.2253418 4.1359253l-4.660736 2.2952576l-1.151123 5.1574707l-4.6606445 -2.2953186l-4.6606445 2.2953186l-1.151123 -5.1574707z" fill-rule="evenodd"/><path fill="#ffce9a" d="m527.3872 254.28093l3.2252808 -4.13591l-1.151062 -5.15744l5.1729736 1.5258789E-5l3.2252808 -4.1359406l3.2252808 4.1359406l5.1729736 -1.5258789E-5l-1.151062 5.15744l3.2253418 4.13591l-4.6607666 2.2952728l-1.151123 5.15744l-4.6606445 -2.295288l-4.6606445 2.295288l-1.151123 -5.15744z" fill-rule="evenodd"/><path fill="#ffce9a" d="m413.58313 156.4059l3.2253418 -4.13591l-1.1510925 -5.15744l5.173004 1.5258789E-5l3.2252502 -4.1359406l3.2252502 4.1359406l5.173004 -1.5258789E-5l-1.151062 5.15744l3.2253113 4.13591l-4.660736 2.2952728l-1.151123 5.1574554l-4.6606445 -2.2953033l-4.6606445 2.2953033l-1.151123 -5.1574554z" fill-rule="evenodd"/><path fill="#38761d" d="m426.22964 210.62993l15.669312 0l0 0c4.1557617 0 8.141296 1.6508636 11.0798645 4.5894165c2.938568 2.938568 4.5894165 6.924118 4.5894165 11.0798645l0 349.0551l-31.338593 0z" fill-rule="evenodd"/><path fill="#6aa84f" d="m426.22964 210.62993l-15.669281 0l0 0c-4.1557617 0 -8.141296 1.6508636 -11.0798645 4.5894165c-2.938568 2.938568 -4.5894165 6.924118 -4.5894165 11.0798645l0 349.0551l31.338562 0z" fill-rule="evenodd"/><path fill="#6aa84f" d="m306.21375 470.71204l0 15.7795105l0 0c0 4.1849976 1.6624756 8.198578 4.6217346 11.157806c2.9592285 2.959259 6.972809 4.6217346 11.157806 4.6217346l101.07483 0l0 -31.559052z" fill-rule="evenodd"/><path fill="#6aa84f" d="m306.21478 489.76086l0 -15.669312l0 0c0 -4.155731 1.6508789 -8.141296 4.589447 -11.079834c2.938568 -2.938568 6.924103 -4.589447 11.0798645 -4.589447l101.18506 0l0 31.338593z" fill-rule="evenodd"/><path fill="#6aa84f" d="m337.75903 384.16437l-15.779541 0l0 0c-4.184967 0 -8.198547 1.6624756 -11.157806 4.6217346c-2.9592285 2.9592285 -4.621704 6.972809 -4.621704 11.157806l0 89.76376l31.559052 0z" fill-rule="evenodd"/><path fill="#6aa84f" d="m321.52386 384.1653l15.669281 0l0 0c4.1557617 0 8.141296 1.6508789 11.0798645 4.5894165c2.938568 2.938568 4.5894165 6.9241333 4.5894165 11.0798645l0 89.87402l-31.338562 0z" fill-rule="evenodd"/><path fill="#38761d" d="m561.6013 374.01385l0 15.779541l0 0c0 4.1849976 -1.6624756 8.198578 -4.621704 11.157806c-2.9592285 2.9592285 -6.9728394 4.621704 -11.157837 4.621704l-101.07483 0l0 -31.559052z" fill-rule="evenodd"/><path fill="#38761d" d="m561.6003 393.06268l0 -15.669281l0 0c0 -4.1557617 -1.6508789 -8.141296 -4.5894165 -11.0798645c-2.9385986 -2.938568 -6.9241333 -4.5894165 -11.079895 -4.5894165l-101.18506 0l0 31.338562z" fill-rule="evenodd"/><path fill="#38761d" d="m530.056 287.46622l15.779541 0l0 0c4.1849976 0 8.198547 1.6624756 11.157776 4.621704c2.9592896 2.9592285 4.621765 6.9728394 4.621765 11.157806l0 89.763794l-31.559082 0z" fill-rule="evenodd"/><path fill="#38761d" d="m546.2912 287.46716l-15.6692505 0l0 0c-4.1557617 0 -8.141296 1.6508484 -11.079895 4.5894165c-2.9385376 2.938568 -4.5894165 6.924103 -4.5894165 11.0798645l0 89.87402l31.338562 0z" fill-rule="evenodd"/><path fill="#db870d" d="m425.79398 625.9265l40.31494 0l0 125.29132l-40.31494 0z" fill-rule="evenodd"/><path fill="#db870d" d="m505.85696 622.126l-36.31259 128.97638l-7.4378357 0l-36.31256 -128.97638z" fill-rule="evenodd"/><path fill="#df8400" d="m320.48163 625.9265l12.64566 -50.582703l181.85825 0l12.645691 50.582703z" fill-rule="evenodd"/><path fill="#be772d" d="m425.68372 625.9265l0 -50.582703l87.590576 0l0 50.582703z" fill-rule="evenodd"/><path fill="#be772d" d="m439.7966 625.9265l12.64566 -50.582703l62.299194 0l12.645691 50.582703z" fill-rule="evenodd"/></g></svg>