<svg version="1.1" viewBox="0.0 0.0 799.7900262467192 739.0472440944882" fill="none" stroke="none" stroke-linecap="square" stroke-miterlimit="10" xmlns:xlink="http://www.w3.org/1999/xlink" xmlns="http://www.w3.org/2000/svg"><clipPath id="p.0"><path d="m0 0l799.79004 0l0 739.04724l-799.79004 0l0 -739.04724z" clip-rule="nonzero"/></clipPath><g clip-path="url(#p.0)"><path fill="#000000" fill-opacity="0.0" d="m0 0l799.79004 0l0 739.04724l-799.79004 0z" fill-rule="evenodd"/><path fill="#e69138" d="m237.09544 59.362534c19.354782 -9.435696 65.32152 76.20909 78.38582 95.80577c13.064301 19.59668 15.725739 8.225723 0 21.774277c-15.725708 13.548553 -74.99956 53.71042 -94.354324 59.51706c-19.354767 5.806656 -24.4357 4.83902 -21.774277 -24.677155c2.6614227 -29.51619 18.388016 -142.98425 37.742783 -152.41995z" fill-rule="evenodd"/><path fill="#e69138" d="m582.7306 70.97408c-19.354736 -9.435696 -65.32147 76.2091 -78.3858 95.80578c-13.064301 19.596664 -15.725708 8.225723 0 21.774277c15.725708 13.548553 74.99957 53.710403 94.35431 59.51706c19.354797 5.8066406 24.43573 4.83902 21.774292 -24.67717c-2.661438 -29.51619 -18.388 -142.98425 -37.742798 -152.41995z" fill-rule="evenodd"/><path fill="#e69138" d="m73.76736 329.86346c34.30033 -23.04663 159.75272 -125.70749 226.78925 -152.56859c67.03656 -26.861084 102.65823 -31.083145 175.43011 -8.597946c72.77188 22.485199 214.47726 106.204285 261.20114 143.50916c46.723877 37.30487 65.57605 27.98468 19.14215 80.32016c-46.43396 52.33545 -231.45605 193.78894 -297.74573 233.69257c-66.2897 39.903625 -33.276184 49.40094 -99.99246 5.729309c-66.71628 -43.67163 -268.43512 -206.3404 -300.30515 -267.75916c-31.869997 -61.418762 103.00715 -92.65109 109.08515 -100.75348c6.0779877 -8.102356 -57.01645 41.0679 -72.617195 52.13925c-15.600746 11.07132 -55.28762 37.335358 -20.98729 14.288727z" fill-rule="evenodd"/><path fill="#c27ba0" d="m244.53197 98.24942c10.283188 -6.2520905 34.705338 50.496155 41.646378 63.48091c6.9410706 12.984756 8.355103 5.450363 0 14.427628c-8.355072 8.97728 -39.84726 35.58853 -50.130447 39.436005c-10.283188 3.8474884 -12.982681 3.2063446 -11.568665 -16.35109c1.4140015 -19.557419 9.7695465 -94.741356 20.052734 -100.993454z" fill-rule="evenodd"/><path fill="#c27ba0" d="m577.91064 101.16019c-10.283142 -6.252098 -34.705322 50.49614 -41.646362 63.480896c-6.941101 12.984772 -8.355103 5.450363 0 14.427643c8.3550415 8.97728 39.84723 35.588516 50.130432 39.436005c10.283203 3.8474884 12.982727 3.2063293 11.568665 -16.35109c-1.4140015 -19.557419 -9.769531 -94.74136 -20.052734 -100.993454z" fill-rule="evenodd"/><path fill="#fce5cd" d="m50.245464 345.31546c-6.5219536 -45.90451 169.06416 -38.619415 221.23842 -29.14737c52.174255 9.472076 85.28519 40.075195 91.80716 85.979706c6.521942 45.90448 -0.5011902 198.91928 -52.675446 189.44724c-52.174255 -9.472046 -253.84818 -200.37509 -260.37015 -246.27957z" fill-rule="evenodd"/><path fill="#000000" d="m208.12599 378.7152l0 0c0 -12.028473 9.736923 -21.77951 21.748016 -21.77951l0 0c5.7679443 0 11.299637 2.2946167 15.378189 6.379059c4.0785522 4.0844727 6.3698425 9.624176 6.3698425 15.400452l0 0c0 12.028503 -9.736923 21.779541 -21.748032 21.779541l0 0c-12.011093 0 -21.748016 -9.751038 -21.748016 -21.779541z" fill-rule="evenodd"/><path fill="#fce5cd" d="m783.15204 355.49026c9.398499 -45.549072 -167.75525 -49.17932 -220.84662 -42.942688c-53.0914 6.2366333 -88.30313 34.813446 -97.7016 80.36252c-9.398499 45.54904 -11.780731 199.16846 41.31064 192.93182c53.0914 -6.2366333 267.83914 -184.80261 277.23758 -230.35165z" fill-rule="evenodd"/><path fill="#000000" d="m547.73755 378.7152l0 0c0 -12.028473 9.736938 -21.77951 21.747986 -21.77951l0 0c5.7679443 0 11.299683 2.2946167 15.378235 6.379059c4.0785522 4.0844727 6.369812 9.624176 6.369812 15.400452l0 0c0 12.028503 -9.736938 21.779541 -21.748047 21.779541l0 0c-12.011047 0 -21.747986 -9.751038 -21.747986 -21.779541z" fill-rule="evenodd"/><path fill="#000000" d="m363.6259 634.2003c-14.758118 -8.709534 -39.192047 -16.934814 -36.288727 -26.128601c2.9033203 -9.193787 32.660553 -23.953186 53.70868 -29.034119c21.048096 -5.0809326 54.434814 -6.2904663 72.58005 -1.451477c18.145233 4.8390503 42.58136 16.69513 36.29132 30.485596c-6.2900085 13.790466 -52.98294 47.902466 -74.031494 52.257202c-21.048553 4.3547974 -37.50174 -17.419067 -52.259827 -26.128601z" fill-rule="evenodd"/></g></svg>